<svg xmlns="http://www.w3.org/2000/svg" width="64" height="64" viewBox="0 0 64 64"><defs><style>.a,.d{fill:none;}.a{stroke:#01d67c;stroke-width:2px;}.b{fill:#01d67c;}.c{stroke:none;}</style></defs><g class="a"><circle class="c" cx="32" cy="32" r="32"/><circle class="d" cx="32" cy="32" r="31"/></g><g transform="translate(15 19)"><path class="b" d="M11.629,90.129.5,79a1.712,1.712,0,0,1,0-2.421l2.421-2.421a1.712,1.712,0,0,1,2.421,0l7.5,7.5L28.9,65.6a1.712,1.712,0,0,1,2.421,0l2.421,2.421a1.712,1.712,0,0,1,0,2.421L14.05,90.129a1.712,1.712,0,0,1-2.421,0Z" transform="translate(0 -65.098)"/></g></svg>