<svg xmlns="http://www.w3.org/2000/svg" width="58.358" height="60.183" viewBox="0 0 58.358 60.183"><defs><style>.a{fill:#37a661;}</style></defs><g transform="translate(0 0)"><path class="a" d="M1483.991,249.9l-8.181-8.181a14.986,14.986,0,0,0-6.707-22.176q0-4.946.011-9.893a8.217,8.217,0,0,0-2.359-6.1,7.759,7.759,0,0,0-5.689-2.283q-9.472-.022-18.943,0a4.879,4.879,0,0,0-3.593,1.483c-3.631,3.642-7.284,7.262-10.917,10.9a4.363,4.363,0,0,0-1.287,3.174q-.01,18.385,0,36.77a7.917,7.917,0,0,0,6.686,7.8,5.206,5.206,0,0,0,.876.045q13.89,0,27.78-.006a7.155,7.155,0,0,0,6.226-3.666,8.428,8.428,0,0,0,1.213-4.7q0-2.915,0-5.83a15.045,15.045,0,0,0,3.435-2.008l8.062,8.062a2.354,2.354,0,0,0,3.32,0l.066-.066A2.354,2.354,0,0,0,1483.991,249.9Zm-43.916-44.537c.009.175.018.27.018.365q0,3.441,0,6.881a1.5,1.5,0,0,1-1.112,1.531,3.906,3.906,0,0,1-1.145.19c-2.114.018-4.229.009-6.343.007a2.291,2.291,0,0,1-.282-.027Zm26.125,47.648c0,.293-.011.586-.031.878a4.926,4.926,0,0,1-4.962,4.695c-8.95-.03-17.9-.01-26.851-.011a5.011,5.011,0,0,1-5.113-5.13q0-17.822,0-35.645v-.57h.631c2.6,0,5.208.007,7.811-.006a7.944,7.944,0,0,0,1.549-.131,4.631,4.631,0,0,0,3.8-4.834c-.1-2.664-.021-5.335-.021-8.077h.437q8.861,0,17.722,0a4.784,4.784,0,0,1,3.371,1.3,5.456,5.456,0,0,1,1.664,4.268q0,4.46,0,8.92a15,15,0,1,0,0,29.444Q1466.2,250.566,1466.2,253.015Zm-2.858-7.751a11.869,11.869,0,1,1,11.869-11.869A11.883,11.883,0,0,1,1463.343,245.265Z" transform="translate(-1426.318 -201.26)"/><path class="a" d="M1593.364,340.862l-4.181-4.181,4.1-4.1a1.686,1.686,0,0,0,0-2.377h0a1.686,1.686,0,0,0-2.377,0l-4.1,4.1-4.017-4.017a1.686,1.686,0,0,0-2.377,0h0a1.686,1.686,0,0,0,0,2.377l4.017,4.017-4.1,4.1a1.686,1.686,0,0,0,0,2.377h0a1.686,1.686,0,0,0,2.377,0l4.1-4.1,4.181,4.181a1.686,1.686,0,0,0,2.377,0h0A1.686,1.686,0,0,0,1593.364,340.862Z" transform="translate(-1549.808 -304.587)"/></g></svg>