<svg xmlns="http://www.w3.org/2000/svg" viewBox="0 0 13.04 13.64"><defs><style>.cls-1{fill:#72777b;}</style></defs><title>Outros lançamentos normal</title><g id="Camada_2" data-name="Camada 2"><g id="Camada_1-2" data-name="Camada 1"><path class="cls-1" d="M12.19,8s0,0,0-.08,0,0,0-.06v0C12.15,7.9,12.17,8,12.19,8Z"/><path class="cls-1" d="M12.19,9.77a.09.09,0,0,0,0,.06.64.64,0,0,1,0,.07.06.06,0,0,1,0,0V9.87s0,0,0,0S12.15,9.77,12.19,9.77Z"/><path class="cls-1" d="M12.13,7.85V9.94l0,0a.15.15,0,0,0,0-.07.09.09,0,0,1,0-.06V8Z"/><path class="cls-1" d="M13,7.21V10.3c-.06.08,0,.17-.08.24a1.26,1.26,0,0,1-.83.9V6.07a1.18,1.18,0,0,1,.81.8C13,7,13,7.09,13,7.21Z"/><path class="cls-1" d="M11.36,4.13H.76l-.19,0A.73.73,0,0,0,0,4.89v8a1.21,1.21,0,0,0,0,.19.74.74,0,0,0,.75.57H11.35a.84.84,0,0,0,.35-.07.72.72,0,0,0,.43-.71v-8A.74.74,0,0,0,11.36,4.13Zm-1.77,6a1.6,1.6,0,1,1,1.59-1.59A1.6,1.6,0,0,1,9.59,10.14Z"/><path class="cls-1" d="M1,3.42H.89l.17-.1C2.86,2.25,4.67,1.21,6.47.13A2.55,2.55,0,0,1,6.76,0c0,.05,0,.05-.07.05A.82.82,0,0,0,6.5.14C5.73.6,5,1.07,4.17,1.52L2.5,2.5c-.48.27-.95.56-1.42.83L1,3.4a3.22,3.22,0,0,0,1,0c.58-.18,1.16-.38,1.73-.57l3.14-1,1.07-.36c.08,0,.08,0,.05-.12L7.61.51A.85.85,0,0,0,7,.05L7,0H7V0a.84.84,0,0,1,.69.52L8,1.28a.36.36,0,0,0,0,.09L7,1.69,1.92,3.4a.57.57,0,0,1-.18,0Z"/><path class="cls-1" d="M4.59,3.17c1.64-.53,3.27-1,4.89-1.62a1,1,0,0,1,.75,0,.83.83,0,0,1,.3.2.7.7,0,0,1,.19.35L11,3.33c0,.1,0,.1-.06.1H3.82Z"/><path class="cls-1" d="M8,1.37,7,1.69,1.92,3.4a.57.57,0,0,1-.18,0H.89l.17-.1C2.86,2.25,4.67,1.21,6.47.13A2.55,2.55,0,0,1,6.76,0h0S6.9,0,7,0H7a.84.84,0,0,1,.69.52L8,1.28A.36.36,0,0,0,8,1.37Z"/><path class="cls-1" d="M7,0H7c-.06,0-.11,0-.16,0H7Z"/><path class="cls-1" d="M11,3.43H3.82l.77-.25c1.64-.53,3.27-1,4.89-1.62a1,1,0,0,1,.75,0,.83.83,0,0,1,.3.2.7.7,0,0,1,.19.35L11,3.33C11.05,3.43,11.05,3.43,11,3.43Z"/></g></g></svg>