<svg xmlns="http://www.w3.org/2000/svg" viewBox="0 0 14.65 10.98"><defs><style>.cls-1{fill:#72777b;}</style></defs><title>Ícone pagamento - Normal</title><g id="Camada_2" data-name="Camada 2"><g id="Camada_1-2" data-name="Camada 1"><path class="cls-1" d="M3.45,6.16,2.23,4.34h-1V6.16H0V.47H2.6c1.34,0,2.14.71,2.14,1.88h0A1.77,1.77,0,0,1,3.53,4.13l1.38,2Zm0-3.75c0-.53-.38-.81-1-.81H1.25V3.23H2.52c.61,0,1-.32,1-.8Z"/><path class="cls-1" d="M8.31,6.15V7H7.47V6.13a4.07,4.07,0,0,1-1.92-.77l.63-.93a3.08,3.08,0,0,0,1.33.66V3.8C6.34,3.48,5.76,3,5.76,2.07S6.44.58,7.47.47V0h.84V.49a3.32,3.32,0,0,1,1.51.6L9.28,2a3.44,3.44,0,0,0-1-.48V2.79C9.51,3.12,10,3.63,10,4.54S9.34,6,8.31,6.15Zm-.8-4.66C7.12,1.54,7,1.74,7,2s.11.42.56.58ZM8.27,4V5.13c.38,0,.58-.23.58-.52S8.71,4.16,8.27,4Z"/><path class="cls-1" d="M13.56,5.57l1,2.22a.43.43,0,0,1-.54.59l-.87-.31a4.53,4.53,0,0,1-7.88,1,.23.23,0,0,1,.08-.33l1-.45a.23.23,0,0,1,.26.06,3.07,3.07,0,0,0,5.22-.82l-1-.36a.44.44,0,0,1,0-.81l2.21-1A.45.45,0,0,1,13.56,5.57Z"/></g></g></svg>