<svg id="Camada_2" data-name="Camada 2" xmlns="http://www.w3.org/2000/svg" width="42.199" height="14" viewBox="0 0 42.199 14">
  <g id="Camada_1" data-name="Camada 1">
    <rect id="Retângulo_23" data-name="Retângulo 23" width="42.199" height="14" rx="7" fill="#2fac66"/>
    <path id="Caminho_98" data-name="Caminho 98" d="M20.455,6.763a2.438,2.438,0,0,1,.415,1.405,2.16,2.16,0,0,1-.415,1.356,2.156,2.156,0,0,1-.651.522,1.948,1.948,0,0,1,1,.829,2.537,2.537,0,0,1,.34,1.351,2.794,2.794,0,0,1-.39,1.468,2.487,2.487,0,0,1-.614.721,2.3,2.3,0,0,1-.983.464A5.734,5.734,0,0,1,17.918,15H14V5.78h4.2A2.58,2.58,0,0,1,20.455,6.763Zm-4.726.618V9.412h2.114a1.7,1.7,0,0,0,.92-.224.887.887,0,0,0,.352-.829.829.829,0,0,0-.464-.829,3.126,3.126,0,0,0-1.028-.145Zm0,3.553v2.454h2.114a1.957,1.957,0,0,0,.879-.162,1.173,1.173,0,0,0,.572-1.136,1,1,0,0,0-.556-.987,2.073,2.073,0,0,0-.866-.158Z" transform="translate(-8.196 -3.384)" fill="#fff"/>
    <path id="Caminho_99" data-name="Caminho 99" d="M41.13,7.409H36.512V9.366h4.241v1.6H36.512v2.367h4.83v1.658H34.75V5.78h6.38Z" transform="translate(-20.344 -3.384)" fill="#fff"/>
    <path id="Caminho_100" data-name="Caminho 100" d="M59.4,5.78V7.409H56.8v7.582H54.966V7.409H52.35V5.78Z" transform="translate(-30.647 -3.384)" fill="#fff"/>
    <path id="Caminho_101" data-name="Caminho 101" d="M71.035,5.78h2.073l3.06,9.212H74.2l-.576-1.89h-3.2l-.593,1.89h-1.9Zm-.12,5.729h2.226l-1.1-3.623Z" transform="translate(-39.768 -3.384)" fill="#fff"/>
  </g>
</svg>
