<svg xmlns="http://www.w3.org/2000/svg" width="23.809" height="25.418" viewBox="0 0 23.809 25.418"><defs><style>.a{fill:#999;stroke:rgba(0,0,0,0);}</style></defs><g transform="translate(0.5 0.59)"><path class="a" d="M4765.975,20408.928a10.039,10.039,0,0,1,.005-20.078,10.215,10.215,0,0,1,2,.2,2.114,2.114,0,0,0,1.972,2.771h1.065v6.064a1.553,1.553,0,0,0,1.537,1.572h2.53a1.506,1.506,0,0,0,.922-.334,10.034,10.034,0,0,1-10.023,9.8Zm-2.422-7.033-.784.748a.455.455,0,0,0-.062.072.538.538,0,0,0,.118.752,3.812,3.812,0,0,0,2.074.748v.82a.8.8,0,0,0,.8.8h.543a.8.8,0,0,0,.8-.8v-.811a2.974,2.974,0,0,0,2.853-3.006,3.038,3.038,0,0,0-2.11-2.9l-3.006-.9a.877.877,0,0,1-.584-.85.844.844,0,0,1,.784-.887h1.879a1.666,1.666,0,0,1,.861.246.548.548,0,0,0,.676-.047l.784-.746a.455.455,0,0,0,.062-.072.541.541,0,0,0-.118-.754,3.806,3.806,0,0,0-2.074-.742v-.824a.8.8,0,0,0-.8-.8h-.538a.8.8,0,0,0-.8.8v.809h0a2.975,2.975,0,0,0-2.853,3.012,3.023,3.023,0,0,0,2.11,2.9l3.006.9a.868.868,0,0,1,.584.846.841.841,0,0,1-.784.885h-1.88a1.664,1.664,0,0,1-.86-.244.528.528,0,0,0-.306-.1A.554.554,0,0,0,4763.552,20401.895Zm9-3.437a.546.546,0,0,1-.538-.553v-7.088h-.082l-1.982,0a1.127,1.127,0,0,1-.748-.322,1.115,1.115,0,0,1-.256-1.2,1.061,1.061,0,0,1,.241-.375l3.862-3.994.036-.035a1.051,1.051,0,0,1,1.485.035l3.862,3.994a1.119,1.119,0,0,1-.763,1.9H4775.6v7.084a.551.551,0,0,1-.543.553Z" transform="translate(-4755.941 -20384.6)"/></g></svg>