<svg xmlns="http://www.w3.org/2000/svg" viewBox="0 0 100 124.03"><defs><style>.cls-1{fill:#cccece;}</style></defs><title>icone_customizado_normal</title><g id="Camada_2" data-name="Camada 2"><g id="Camada_3" data-name="Camada 3"><path class="cls-1" d="M76.08,0H0V124H100V25.25ZM13.33,44.19c-1-2.77-.3-5.41,2.52-8.29,2.42-2.48,5-4.83,7.33-7.39,3-3.31,7.31-4.24,9.94-2.45a59,59,0,0,1,5.23,4.88c.62.58,1.22,1.17,1.79,1.71L20.49,52.27C18.63,49.88,14.49,47.31,13.33,44.19ZM59,90.61,22.76,54.32c.76-.73,8.26-8.18,9.06-9s.91-.16,1.19.12c2.23,2.22,5.57,5.56,7.79,7.79l20,20c.16.16.33.31.58.54.78-.88,2.94-3.14,3.62-3.91L36.24,41.15,42.43,35c4.35,4.36,9.83,9.87,14.21,14.25,11.42,11.43,9.51,9.54,21,20.94.72.72.62,1.15-.35,2.11C71.42,78,65.64,83.84,59.85,89.64A12,12,0,0,0,59,90.61Zm.93.85L79.24,72.2c.67,7,3.57,16.17,4.28,23.52C76.24,95,67,92.12,60,91.46Z"/></g></g></svg>