<svg id="Camada_2" data-name="Camada 2" xmlns="http://www.w3.org/2000/svg" width="57.082" height="15" viewBox="0 0 57.082 15">
  <g id="Camada_1" data-name="Camada 1">
    <path id="Caminho_128" data-name="Caminho 128" d="M7.5,0H49.582a7.5,7.5,0,0,1,0,15H7.5a7.5,7.5,0,0,1,0-15Z" fill="#2fac66"/>
    <path id="Caminho_115" data-name="Caminho 115" d="M38.89,5.68h2.039l3.687,6.858V5.68h1.812v9.834H44.487L40.716,8.536v6.978H38.89Z" transform="translate(-21.616 -3.157)" fill="#fff"/>
    <path id="Caminho_116" data-name="Caminho 116" d="M66.612,14.261a4.618,4.618,0,0,1-6.09,0,5.479,5.479,0,0,1-1.412-4.055,5.5,5.5,0,0,1,1.412-4.06A3.96,3.96,0,0,1,63.578,5a3.888,3.888,0,0,1,3.034,1.146,5.4,5.4,0,0,1,1.408,4.06A5.38,5.38,0,0,1,66.612,14.261ZM65.4,12.769a4.2,4.2,0,0,0,.68-2.563,4.175,4.175,0,0,0-.671-2.541,2.168,2.168,0,0,0-1.83-.888,2.221,2.221,0,0,0-1.852.888,4.153,4.153,0,0,0-.688,2.563,4.171,4.171,0,0,0,.688,2.541,2.221,2.221,0,0,0,1.843.888,2.172,2.172,0,0,0,1.839-.888Z" transform="translate(-32.854 -2.779)" fill="#fff"/>
    <path id="Caminho_117" data-name="Caminho 117" d="M86.112,5.68h2.017l-3.167,9.834H83.109L80,5.68h2.074l2.017,7.467Z" transform="translate(-44.466 -3.157)" fill="#fff"/>
    <path id="Caminho_118" data-name="Caminho 118" d="M106.612,14.261a4.618,4.618,0,0,1-6.09,0,5.479,5.479,0,0,1-1.412-4.055,5.5,5.5,0,0,1,1.412-4.06A3.911,3.911,0,0,1,103.561,5a3.954,3.954,0,0,1,3.052,1.146,5.4,5.4,0,0,1,1.408,4.06A5.38,5.38,0,0,1,106.612,14.261ZM105.4,12.769a4.229,4.229,0,0,0,.675-2.563,4.206,4.206,0,0,0-.68-2.541,2.172,2.172,0,0,0-1.834-.888,2.221,2.221,0,0,0-1.834.888,4.153,4.153,0,0,0-.688,2.563,4.171,4.171,0,0,0,.688,2.541,2.328,2.328,0,0,0,3.673,0Z" transform="translate(-55.087 -2.779)" fill="#fff"/>
    <path id="Caminho_119" data-name="Caminho 119" d="M13.616,5.405l1.142,2.31a.555.555,0,0,0,.422.311l2.554.369a.564.564,0,0,1,.315.959l-1.852,1.8a.573.573,0,0,0-.16.5l.444,2.545a.564.564,0,0,1-.817.591l-2.283-1.2a.573.573,0,0,0-.524,0l-2.283,1.2a.564.564,0,0,1-.817-.591l.444-2.545a.573.573,0,0,0-.16-.5l-1.87-1.8A.564.564,0,0,1,8.486,8.4L11.04,8.03a.555.555,0,0,0,.422-.311L12.6,5.405a.564.564,0,0,1,1.013,0Z" transform="translate(-4.448 -2.829)" fill="#fff"/>
  </g>
</svg>
