<svg xmlns="http://www.w3.org/2000/svg" width="23.411" height="23.412" viewBox="0 0 23.411 23.412"><defs><style>.a{fill:none;}.b{fill:#999;}</style></defs><g transform="translate(0 0)"><path class="a" d="M-784.286,579.6a3.024,3.024,0,0,0-2.109-2.9l-3.006-.9a.872.872,0,0,1-.584-.849.84.84,0,0,1,.786-.883h1.877a1.6,1.6,0,0,1,.859.246.543.543,0,0,0,.676-.048l.787-.749a.5.5,0,0,0,.06-.069.541.541,0,0,0-.117-.756,3.815,3.815,0,0,0-2.074-.743v-.825a.8.8,0,0,0-.8-.8h-.539a.8.8,0,0,0-.8.8v.811h0a2.979,2.979,0,0,0-2.852,3.011,3.022,3.022,0,0,0,2.109,2.9l3.007.9a.873.873,0,0,1,.584.849.838.838,0,0,1-.786.883h-1.877a1.584,1.584,0,0,1-.859-.246.545.545,0,0,0-.676.048l-.787.749a.633.633,0,0,0-.06.069h0a.541.541,0,0,0,.118.756,3.8,3.8,0,0,0,2.074.743v.825a.8.8,0,0,0,.8.8h.54a.8.8,0,0,0,.8-.8v-.81A2.977,2.977,0,0,0-784.286,579.6Z" transform="translate(798.237 -567.234)"/><g transform="translate(798.237 -567.234)"><path class="b" d="M-783.66,583.428h1.094v-6.08a1.548,1.548,0,0,1,1.523-1.557h2.532a1.631,1.631,0,0,1,.233.028,10.033,10.033,0,0,0-9.921-8.584,10.038,10.038,0,0,0-10.038,10.038h0A10.036,10.036,0,0,0-788.2,587.31h0a10.008,10.008,0,0,0,2.964-.446,2.107,2.107,0,0,1-.472-1.25,2.106,2.106,0,0,1,.571-1.517A2.1,2.1,0,0,1-783.66,583.428Zm-3.478-.817v.81a.8.8,0,0,1-.8.8h-.54a.8.8,0,0,1-.8-.8V582.6a3.8,3.8,0,0,1-2.074-.743.541.541,0,0,1-.118-.756h0a.633.633,0,0,1,.06-.069l.787-.749a.545.545,0,0,1,.676-.048,1.584,1.584,0,0,0,.859.246h1.877a.838.838,0,0,0,.786-.883.873.873,0,0,0-.584-.849l-3.007-.9a3.022,3.022,0,0,1-2.109-2.9,2.979,2.979,0,0,1,2.852-3.011h0v-.811a.8.8,0,0,1,.8-.8h.539a.8.8,0,0,1,.8.8v.825a3.815,3.815,0,0,1,2.074.743.541.541,0,0,1,.117.756.5.5,0,0,1-.06.069l-.787.749a.543.543,0,0,1-.676.048,1.6,1.6,0,0,0-.859-.246H-789.2a.84.84,0,0,0-.786.883.872.872,0,0,0,.584.849l3.006.9a3.024,3.024,0,0,1,2.109,2.9A2.977,2.977,0,0,1-787.138,582.611Z"/><path class="b" d="M-775.162,584.746a1.121,1.121,0,0,0-.745-.319l-2.065,0v-7.078a.54.54,0,0,0-.207-.426.539.539,0,0,0-.332-.131h-2.516a.548.548,0,0,0-.539.555h0v7.08h-2.061a1.118,1.118,0,0,0-1.08,1.155,1.112,1.112,0,0,0,.319.745l.159.165,3.7,3.83a1.051,1.051,0,0,0,1.484.036l.036-.036,3.861-3.994A1.118,1.118,0,0,0-775.162,584.746Z"/></g></g></svg>