<svg xmlns="http://www.w3.org/2000/svg" viewBox="0 0 14 11.2"><defs><style>.cls-1{fill:#4f4f4f;}.cls-2{fill:#b3b3b3;}</style></defs><title>Melhor envio - PB 18x18</title><g id="Camada_2"><g id="Camada_1-2"><path d="M4.47 0a1.73 1.73 0 0 0-1.34.6A1.77 1.77 0 0 0 1.8 0 1.8 1.8 0 0 0 0 1.8v2.75h.9V1.8a.9.9 0 1 1 1.78 0v2.75h.9V1.8a.9.9 0 1 1 1.78 0v2.75h.9V1.8A1.8 1.8 0 0 0 4.45 0M8.47 6.94a2.25 2.25 0 0 0-4.42 0 2.12 2.12 0 0 0 0 .44 2.22 2.22 0 0 0 0 .45 2.25 2.25 0 0 0 4 .9l-.7-.54a1.36 1.36 0 0 1-1.1.55A1.4 1.4 0 0 1 5 7.83h3.47a2.22 2.22 0 0 0 0-.45 2.12 2.12 0 0 0 0-.44M6.27 6a1.36 1.36 0 0 1 1.28.92H5A1.37 1.37 0 0 1 6.26 6" class="cls-1"/><path d="M14 6.88a.88.88 0 0 0-.18-.45 1.45 1.45 0 0 0-1.2-.43 2.4 2.4 0 0 0 .5-1.32 1.36 1.36 0 0 0-.36-1 1.13 1.13 0 0 0-.3-.2.84.84 0 0 0-.36-.08.88.88 0 0 0-.66.26 1.28 1.28 0 0 0-.3.6 1.14 1.14 0 0 1-.18.4l-.13.17a4.36 4.36 0 0 1-.37.38c-.14.13-.3.27-.43.38v.6s.55-.4.77-.6a4.15 4.15 0 0 0 .42-.43V5.1h.05l.17-.25a1.4 1.4 0 0 0 .22-.44s0-.05 0-.08A.8.8 0 0 1 11.8 4h.08a.6.6 0 0 1 .32 0 .47.47 0 0 1 .2.1.9.9 0 0 1 .2.63 2 2 0 0 1-.46 1.1 1.66 1.66 0 0 0-.2.3l-.14.34h.73c.4 0 .74 0 .9.23a.3.3 0 0 1 .08.2.78.78 0 0 1 0 .3 1.16 1.16 0 0 0 0 .58.57.57 0 0 1 0 .26.77.77 0 0 1-.16.37.82.82 0 0 0-.1.2.75.75 0 0 0 0 .26 1.1 1.1 0 0 1-.07.3 1.1 1.1 0 0 1-.14.22.58.58 0 0 1-.15.16.88.88 0 0 0-.16.17 2.37 2.37 0 0 1-.47.6 1.27 1.27 0 0 1-.5.25h-.52a5.55 5.55 0 0 1-1.3-.15 7.2 7.2 0 0 0-.85-.15h-9a0 0 0 1 0 0 .08l8.77.43a6.16 6.16 0 0 1 .78.14 6 6 0 0 0 1.37.3 3.13 3.13 0 0 0 .44 0l.3-.07a1.14 1.14 0 0 0 .36-.15 2.4 2.4 0 0 0 .8-.85s0 0 0-.06a1.25 1.25 0 0 0 .36-.42 1.22 1.22 0 0 0 .2-.67.28.28 0 0 1 0-.1.2.2 0 0 1 0-.05 1.4 1.4 0 0 0 .26-.6 1 1 0 0 0 0-.43.6.6 0 0 1 0-.33 1.2 1.2 0 0 0 .07-.5" class="cls-2"/></g></g></svg>