<svg xmlns="http://www.w3.org/2000/svg" viewBox="0 0 81.71 60.82"><defs><style>.cls-1{fill:#a6a9ab;}.cls-2{fill:#cac9c9;}.cls-3{fill:#939498;}.cls-4{fill:#acadaa;}.cls-5{fill:#20364d;}.cls-6{fill:#f1f1f1;}.cls-7{fill:#cfd2d2;}.cls-8{fill:#e2e2e1;}.cls-9{fill:#a2a3a0;}.cls-10{fill:none;stroke:#a0a09f;stroke-miterlimit:10;stroke-width:3px;}</style></defs><title>sem vinculação com LV</title><g id="Camada_2" data-name="Camada 2"><g id="Conteúdo"><polygon class="cls-1" points="48.77 57.42 32.67 57.42 33.1 51.77 48.34 51.77 48.77 57.42"/><polygon class="cls-2" points="53.28 59.55 28.16 59.55 32.64 57.42 48.8 57.42 53.28 59.55"/><rect class="cls-3" x="28.16" y="59.55" width="25.11" height="1.27"/><rect class="cls-2" x="8.74" y="6.7" width="63.96" height="45.07" rx="0.86"/><rect class="cls-4" x="12.03" y="10.82" width="57.37" height="34.86"/><path class="cls-2" d="M9.6,51.77a.87.87,0,0,1-.86-.86V45.19h64v5.72a.87.87,0,0,1-.86.86Z"/><path class="cls-5" d="M41.57,9.22a.72.72,0,1,1-1.43,0,.72.72,0,1,1,1.43,0"/><polygon class="cls-6" points="25 12.36 18.65 12.36 12.31 21.19 20.46 21.19 25 12.36"/><polygon class="cls-7" points="31.34 12.36 25 12.36 20.46 21.19 28.62 21.19 31.34 12.36"/><polygon class="cls-6" points="37.68 12.36 31.34 12.36 28.62 21.19 36.78 21.19 37.68 12.36"/><polygon class="cls-7" points="44.02 12.36 37.68 12.36 36.78 21.19 44.93 21.19 44.02 12.36"/><polygon class="cls-6" points="50.37 12.36 44.02 12.36 44.93 21.19 53.09 21.19 50.37 12.36"/><polygon class="cls-7" points="56.71 12.36 50.37 12.36 53.09 21.19 61.24 21.19 56.71 12.36"/><path class="cls-8" d="M20.46,21.19a4.08,4.08,0,0,1-8.15,0Z"/><path class="cls-9" d="M28.62,21.19a4.08,4.08,0,0,1-8.16,0Z"/><polygon class="cls-7" points="18.65 12.36 12.31 12.36 4.16 21.19 12.31 21.19 18.65 12.36"/><path class="cls-9" d="M12.31,21.19a4.08,4.08,0,0,1-8.16,0Z"/><path class="cls-8" d="M36.78,21.19a4.08,4.08,0,0,1-8.16,0Z"/><path class="cls-9" d="M44.93,21.19a4.08,4.08,0,0,1-8.15,0Z"/><path class="cls-8" d="M53.09,21.19a4.08,4.08,0,0,1-8.16,0Z"/><path class="cls-9" d="M61.24,21.19a4.08,4.08,0,0,1-8.15,0Z"/><polygon class="cls-7" points="69.4 12.36 63.05 12.36 69.4 21.19 77.55 21.19 69.4 12.36"/><path class="cls-9" d="M77.55,21.19a4.08,4.08,0,0,1-8.15,0Z"/><polygon class="cls-6" points="63.05 12.36 56.71 12.36 61.24 21.19 69.4 21.19 63.05 12.36"/><path class="cls-8" d="M69.4,21.19a4.08,4.08,0,0,1-8.16,0Z"/><rect class="cls-9" x="12.31" y="10.81" width="6.34" height="1.56"/><rect class="cls-8" x="18.65" y="10.81" width="6.34" height="1.56"/><rect class="cls-9" x="25" y="10.81" width="6.34" height="1.56"/><rect class="cls-8" x="31.34" y="10.81" width="6.34" height="1.56"/><rect class="cls-9" x="37.68" y="10.81" width="6.34" height="1.56"/><rect class="cls-8" x="44.03" y="10.81" width="6.34" height="1.56"/><rect class="cls-9" x="50.37" y="10.81" width="6.34" height="1.56"/><rect class="cls-8" x="56.71" y="10.81" width="6.34" height="1.56"/><rect class="cls-9" x="63.06" y="10.81" width="6.34" height="1.56"/><line class="cls-10" x1="80.85" y1="1.23" x2="0.85" y2="56.58"/></g></g></svg>