<svg xmlns="http://www.w3.org/2000/svg" width="38.517" height="30.546" viewBox="0 0 38.517 30.546"><defs><style>.a{fill:none;}.a,.b{stroke:#3faf6c;stroke-width:0.5px;}.b{fill:#3faf6c;}</style></defs><g transform="translate(-1095.733 -534.75)"><g transform="translate(1095.983 535)"><path class="a" d="M59.185,31.84a8.622,8.622,0,0,0,4.795-7.421c0-4.91-4.777-8.891-10.669-8.891-5.383,0-9.833,3.323-10.562,7.641,4.378,1.421,7.5,5.017,7.5,9.221,0,.181-.007.362-.018.541a12.731,12.731,0,0,0,6.027.033s2.575,2.675,5.764,2.675A5.752,5.752,0,0,1,59.185,31.84Z" transform="translate(-26.944 -14.547)"/><path class="b" d="M39.51,33.344a5.082,5.082,0,0,1-2.158-2.458A9.425,9.425,0,0,0,42,22.993c0-5.444-5.226-9.872-11.65-9.872-5.815,0-10.648,3.628-11.512,8.354a13.566,13.566,0,0,0-3.2-.383c-6.424,0-11.65,4.429-11.65,9.872a9.425,9.425,0,0,0,4.648,7.893,5.081,5.081,0,0,1-2.161,2.46.982.982,0,0,0,.457,1.849,9.747,9.747,0,0,0,6.06-2.588,13.682,13.682,0,0,0,2.648.258c5.815,0,10.648-3.628,11.512-8.354a13.566,13.566,0,0,0,3.2.383A13.711,13.711,0,0,0,33,32.607a9.747,9.747,0,0,0,6.06,2.588.981.981,0,0,0,.453-1.851ZM15.633,39.855a12.684,12.684,0,0,1-2.943-.345s-2.575,2.675-5.764,2.675a5.753,5.753,0,0,0,2.833-3.8,8.622,8.622,0,0,1-4.795-7.421c0-4.91,4.777-8.891,10.669-8.891S26.3,26.054,26.3,30.965,21.526,39.855,15.633,39.855Zm17.659-8.317a12.731,12.731,0,0,1-6.027-.033c.011-.179.018-.36.018-.541,0-4.2-3.118-7.8-7.5-9.221.729-4.318,5.179-7.641,10.562-7.641,5.892,0,10.669,3.981,10.669,8.891a8.622,8.622,0,0,1-4.795,7.421,5.752,5.752,0,0,0,2.833,3.8C35.868,34.214,33.292,31.539,33.292,31.539Z" transform="translate(-3.983 -13.121)"/></g><g transform="translate(1101.626 549.898)"><path class="b" d="M29.154,50.644H18.314a.49.49,0,0,1,0-.981h10.84a.49.49,0,0,1,0,.981Z" transform="translate(-17.824 -49.663)"/></g><g transform="translate(1101.626 552.288)"><path class="b" d="M29.154,56.506H18.314a.49.49,0,1,1,0-.981h10.84a.49.49,0,0,1,0,.981Z" transform="translate(-17.824 -55.525)"/></g><g transform="translate(1101.626 554.883)"><path class="b" d="M29.154,62.872H18.314a.49.49,0,0,1,0-.981h10.84a.49.49,0,0,1,0,.981Z" transform="translate(-17.824 -61.891)"/></g><ellipse class="b" cx="0.876" cy="0.876" rx="0.876" ry="0.876" transform="translate(1117.758 544.408)"/><ellipse class="b" cx="0.876" cy="0.876" rx="0.876" ry="0.876" transform="translate(1121.527 544.408)"/><ellipse class="b" cx="0.876" cy="0.876" rx="0.876" ry="0.876" transform="translate(1125.297 544.408)"/></g></svg>