<?xml version="1.0" encoding="UTF-8" standalone="no"?>
<svg
   xmlns:dc="http://purl.org/dc/elements/1.1/"
   xmlns:cc="http://creativecommons.org/ns#"
   xmlns:rdf="http://www.w3.org/1999/02/22-rdf-syntax-ns#"
   xmlns:svg="http://www.w3.org/2000/svg"
   xmlns="http://www.w3.org/2000/svg"
   id="svg87"
   version="1.1"
   viewBox="0 0 16 16"
   height="16"
   width="16">
  <metadata
     id="metadata93">
    <rdf:RDF>
      <cc:Work
         rdf:about="">
        <dc:format>image/svg+xml</dc:format>
        <dc:type
           rdf:resource="http://purl.org/dc/dcmitype/StillImage" />
        <dc:title></dc:title>
      </cc:Work>
    </rdf:RDF>
  </metadata>
  <defs
     id="defs91" />
  <g
     transform="translate(-1035 -900)"
     data-name="Grupo 1353"
     id="Grupo_1353">
    <g
       transform="translate(1035 900)"
       data-name="Grupo 1351"
       id="Grupo_1351">
      <g
         transform="translate(2.411 2.232)"
         data-name="Grupo 1330"
         id="Grupo_1330" />
      <g
         stroke-width="1"
         stroke="#fff"
         fill="#fff"
         transform="translate(7 7)"
         data-name="Retângulo 958"
         id="Retângulo_958">
        <rect
           id="rect78"
           stroke="none"
           rx="2"
           height="9"
           width="9" />
        <rect
           id="rect80"
           fill="none"
           rx="1.5"
           height="8"
           width="8"
           y="0.5"
           x="0.5" />
      </g>
      <g
         transform="translate(8 8)"
         data-name="Icon / Fechar"
         id="Icon_Fechar">
        <path
           fill="#e14b4b"
           transform="translate(0 -80)"
           d="M4.827,83.5l1.99-1.99a.626.626,0,0,0,0-.885l-.442-.442a.626.626,0,0,0-.885,0L3.5,82.173l-1.99-1.99a.626.626,0,0,0-.885,0l-.442.442a.626.626,0,0,0,0,.885l1.99,1.99L.183,85.49a.626.626,0,0,0,0,.885l.442.442a.626.626,0,0,0,.885,0l1.99-1.99,1.99,1.99a.626.626,0,0,0,.885,0l.442-.442a.626.626,0,0,0,0-.885Z"
           id="times" />
      </g>
    </g>
  </g>
</svg>
