<svg xmlns="http://www.w3.org/2000/svg" width="21.196" height="16.849" viewBox="0 0 21.196 16.849"><defs><style>.a{fill:#ccc;}</style></defs><g transform="translate(0 0)"><g transform="translate(0 0)"><path class="a" d="M17.316,36.182l-5.705-4.346,1.449-1.047v-2.7L9.337,30.811,7.822,29.652a.512.512,0,0,1-.2-.535,2.729,2.729,0,0,0,.022-1.2,2.556,2.556,0,1,0-2.518,3.076,2.577,2.577,0,0,0,1.315-.357.5.5,0,0,1,.579.045L8.49,31.791,7,32.883a.5.5,0,0,1-.579.022,2.677,2.677,0,0,0-1.783-.357,2.565,2.565,0,1,0,2.942,2.964,2.366,2.366,0,0,0-.045-1.047.537.537,0,0,1,.2-.535l1.56-1.137,4.97,3.811A2.194,2.194,0,0,0,17.316,36.182ZM5.125,29.5a1.059,1.059,0,1,1,1.07-1.047A1.08,1.08,0,0,1,5.125,29.5Zm-.067,6.664a1.059,1.059,0,1,1,1.07-1.047A1.051,1.051,0,0,1,5.058,36.159Zm5.171-3.833a.513.513,0,1,1,.513-.513A.5.5,0,0,1,10.229,32.326Z" transform="translate(-2.494 -22.832)"/><path class="a" d="M63.151,17.036a2.089,2.089,0,0,0-.735-1.582L58.8,12.4a.905.905,0,0,0-1.137,0l-3.633,3.053-.2.2a1.963,1.963,0,0,0-.513,1.248v5.015l3.923,3.031.6.446L57.4,26a2.977,2.977,0,0,1-2.362,1.159,2.933,2.933,0,0,1-1.738-.6v1.6a.894.894,0,0,0,.891.891h8.09a.894.894,0,0,0,.891-.891ZM58.2,18.73a1.56,1.56,0,1,1,1.582-1.538A1.537,1.537,0,0,1,58.2,18.73Z" transform="translate(-41.977 -12.2)"/></g></g></svg>