<svg xmlns="http://www.w3.org/2000/svg" width="20" height="20.006" viewBox="0 0 20 20.006"><defs><style>.a{fill:#ccc;}</style></defs><g transform="translate(-6.725 2.301)"><path class="a" d="M24.325,6.7l-5.9.19a3.8,3.8,0,0,0-2.4,1.1L7.552,16.475a2.824,2.824,0,0,0,0,3.994l5.4,5.4a2.829,2.829,0,0,0,1.978.837,2.676,2.676,0,0,0,1.978-.837l8.482-8.482a3.81,3.81,0,0,0,1.1-2.434L26.721,9.1a2.238,2.238,0,0,0-.685-1.712A2.384,2.384,0,0,0,24.325,6.7Zm-3.309,8.291a2.548,2.548,0,1,1,2.548-2.548A2.548,2.548,0,0,1,21.016,14.991Z" transform="translate(0 -9)"/></g></svg>