<svg xmlns="http://www.w3.org/2000/svg" width="20" height="20.001" viewBox="0 0 20 20.001"><defs><style>.a{fill:#ccc;}</style></defs><g transform="translate(-17.883 -13.892)"><path class="a" d="M24.554,21.139a2.77,2.77,0,1,1,0-3.917l.017.019h3.183l.129-3.349L17.7,14.284,8.691,23.293a2.778,2.778,0,0,0,0,3.917l5.875,5.875a2.778,2.778,0,0,0,3.917,0l9.008-9.009.114-2.957H24.572Zm-5.976,7.543-.429-.429a2.489,2.489,0,0,1-.321.183,2.081,2.081,0,0,1-.879.2,1.863,1.863,0,0,1-1.327-.557l.978-.98a.472.472,0,0,0,.349.152.7.7,0,0,0,.295-.073,1.392,1.392,0,0,0,.389-.283,2.421,2.421,0,0,0,.4-.508.718.718,0,0,0,.11-.34.315.315,0,0,0-.029-.134.65.65,0,0,0-.14-.191.657.657,0,0,0-.2-.146.346.346,0,0,0-.145-.029.837.837,0,0,0-.282.061,2.9,2.9,0,0,0-.421.2c-.315.176-.67.421-1.082.614a2.278,2.278,0,0,1-.956.239,1.607,1.607,0,0,1-.636-.129,1.817,1.817,0,0,1-.568-.392,1.9,1.9,0,0,1-.557-1.342,2.027,2.027,0,0,1,.188-.842,2.447,2.447,0,0,1,.2-.344l-.419-.419.979-.979.435.436a2.922,2.922,0,0,1,.263-.151,2.149,2.149,0,0,1,.957-.238,1.791,1.791,0,0,1,.707.144,1.884,1.884,0,0,1,.586.4l-.978.98a.5.5,0,0,0-.154-.108.4.4,0,0,0-.16-.032.777.777,0,0,0-.34.094,2.038,2.038,0,0,0-.517.391,1.394,1.394,0,0,0-.292.4.637.637,0,0,0-.064.269.507.507,0,0,0,.044.206.529.529,0,0,0,.107.157.434.434,0,0,0,.134.1.214.214,0,0,0,.09.017.727.727,0,0,0,.25-.058,3,3,0,0,0,.412-.2c.314-.178.675-.426,1.1-.62a2.39,2.39,0,0,1,.98-.236,1.738,1.738,0,0,1,.7.143,2.154,2.154,0,0,1,1.055,1.045,1.708,1.708,0,0,1,.148.7,2.089,2.089,0,0,1-.285,1.014c-.039.069-.081.136-.125.2l.437.437Z" transform="translate(10)"/><path class="a" d="M58.068,28.817a1.77,1.77,0,0,0-.171-.344.874.874,0,0,0-1.567,0,2.294,2.294,0,0,0,0,2.35.873.873,0,0,0,1.566,0,1.752,1.752,0,0,0,.171-.344h5.938V28.817Z" transform="translate(-32.127 -10.316)"/></g></svg>