<?xml version="1.0" encoding="UTF-8" standalone="no"?>
<!DOCTYPE svg PUBLIC "-//W3C//DTD SVG 1.1//EN" "http://www.w3.org/Graphics/SVG/1.1/DTD/svg11.dtd">
<svg version="1.1" xmlns="http://www.w3.org/2000/svg" xmlns:xlink="http://www.w3.org/1999/xlink" preserveAspectRatio="xMidYMid meet" viewBox="0 0 20 15" width="20" height="15"><defs><path d="M2.5 12.5C2.5 5.37 2.5 1.42 2.5 0.63C2.5 0.28 2.22 0 1.88 0C1.75 0 0.75 0 0.63 0C0.28 0 0 0.28 0 0.63C0 1.94 0 12.44 0 13.75C0 14.44 0.56 15 1.25 15C3.06 15 17.56 15 19.38 15C19.72 15 20 14.72 20 14.37C20 14.25 20 13.25 20 13.12C20 12.78 19.72 12.5 19.38 12.5C17.13 12.5 11.5 12.5 2.5 12.5ZM13.51 1.25C12.68 1.25 12.26 2.26 12.85 2.85C12.93 2.93 13.36 3.36 14.12 4.12L11.25 6.98C9.53 5.26 8.58 4.31 8.38 4.12C7.9 3.63 7.1 3.63 6.62 4.12C6.35 4.38 4.2 6.53 3.93 6.8C3.69 7.04 3.69 7.44 3.93 7.68C4.02 7.77 4.73 8.48 4.82 8.57C5.06 8.81 5.46 8.81 5.7 8.57C5.82 8.45 6.42 7.85 7.5 6.77C9.22 8.49 10.17 9.44 10.37 9.63C10.85 10.12 11.65 10.12 12.13 9.63C12.38 9.38 13.63 8.13 15.88 5.88C16.64 6.64 17.06 7.06 17.15 7.15C17.74 7.74 18.75 7.32 18.75 6.49C18.75 6.03 18.75 2.34 18.75 1.88C18.75 1.53 18.47 1.25 18.13 1.25C17.2 1.25 13.97 1.25 13.51 1.25Z" id="a40puFEUNG"></path></defs><g><g><g><use xlink:href="#a40puFEUNG" opacity="1" fill="#cccccc" fill-opacity="1"></use><g><use xlink:href="#a40puFEUNG" opacity="1" fill-opacity="0" stroke="#000000" stroke-width="1" stroke-opacity="0"></use></g></g></g></g></svg>