<svg xmlns="http://www.w3.org/2000/svg" width="20" height="20.674" viewBox="0 0 20 20.674"><defs><style>.a{fill:#ccc;}</style></defs><g transform="translate(0 0)"><path class="a" d="M21.671,4.894h-1.24v-.74a1.654,1.654,0,1,0-3.308,0v.74H10.9v-.74a1.654,1.654,0,1,0-3.308,0v.74H6.329A2.35,2.35,0,0,0,4,7.244v13.58a2.354,2.354,0,0,0,2.35,2.35h15.3A2.341,2.341,0,0,0,24,20.824V7.244A2.322,2.322,0,0,0,21.671,4.894ZM18.1,4.154a.655.655,0,0,1,.653-.653.669.669,0,0,1,.653.653V5.7a.655.655,0,0,1-.653.653A.669.669,0,0,1,18.1,5.7Zm-9.51,0a.653.653,0,0,1,1.306,0V5.7a.653.653,0,0,1-1.306,0ZM23.02,20.824a1.342,1.342,0,0,1-1.349,1.349H6.35A1.356,1.356,0,0,1,5,20.824V9.42H23.02Z" transform="translate(-4 -2.5)"/><circle class="a" cx="1.577" cy="1.577" r="1.577" transform="translate(3.181 14.336)"/><circle class="a" cx="1.577" cy="1.577" r="1.577" transform="translate(8.412 14.336)"/><circle class="a" cx="1.577" cy="1.577" r="1.577" transform="translate(13.643 14.336)"/><circle class="a" cx="1.577" cy="1.577" r="1.577" transform="translate(3.181 9.059)"/><circle class="a" cx="1.577" cy="1.577" r="1.577" transform="translate(8.412 9.059)"/><circle class="a" cx="1.577" cy="1.577" r="1.577" transform="translate(13.643 9.059)"/></g></svg>